<svg width="243" height="65" viewBox="0 0 243 65" fill="none" xmlns="http://www.w3.org/2000/svg">
<path d="M91.8405 30.6219H87.8561C87.7425 29.9685 87.533 29.3896 87.2276 28.8854C86.9222 28.374 86.5422 27.9408 86.0877 27.5857C85.6331 27.2305 85.1147 26.9642 84.5323 26.7866C83.957 26.602 83.3355 26.5097 82.6679 26.5097C81.4818 26.5097 80.4307 26.808 79.5145 27.4045C78.5983 27.994 77.881 28.8605 77.3625 30.004C76.8441 31.1403 76.5848 32.5288 76.5848 34.1695C76.5848 35.8385 76.8441 37.2447 77.3625 38.3882C77.8881 39.5246 78.6054 40.3839 79.5145 40.9663C80.4307 41.5416 81.4783 41.8293 82.6573 41.8293C83.3107 41.8293 83.9215 41.744 84.4897 41.5736C85.0649 41.396 85.5799 41.1368 86.0344 40.7959C86.496 40.455 86.8831 40.0359 87.1956 39.5388C87.5152 39.0416 87.7354 38.4734 87.8561 37.8342L91.8405 37.8555C91.6914 38.8925 91.3682 39.8655 90.871 40.7746C90.381 41.6837 89.7382 42.4862 88.9428 43.1822C88.1473 43.8712 87.2169 44.4109 86.1516 44.8016C85.0862 45.1851 83.9037 45.3768 82.604 45.3768C80.6864 45.3768 78.9747 44.933 77.4691 44.0452C75.9634 43.1574 74.7773 41.8754 73.9108 40.1993C73.0443 38.5232 72.6111 36.5132 72.6111 34.1695C72.6111 31.8186 73.0479 29.8087 73.9215 28.1396C74.7951 26.4635 75.9847 25.1815 77.4904 24.2937C78.996 23.406 80.7006 22.9621 82.604 22.9621C83.8185 22.9621 84.9478 23.1325 85.9918 23.4734C87.0358 23.8143 87.9662 24.3151 88.783 24.9756C89.5997 25.629 90.2709 26.4315 90.7965 27.3832C91.3291 28.3278 91.6772 29.4074 91.8405 30.6219ZM102.427 45.3982C100.829 45.3982 99.4444 45.0466 98.2725 44.3435C97.1006 43.6403 96.1915 42.6567 95.5452 41.3925C94.906 40.1283 94.5864 38.651 94.5864 36.9607C94.5864 35.2703 94.906 33.7895 95.5452 32.5182C96.1915 31.2469 97.1006 30.2597 98.2725 29.5565C99.4444 28.8534 100.829 28.5018 102.427 28.5018C104.025 28.5018 105.41 28.8534 106.582 29.5565C107.754 30.2597 108.66 31.2469 109.299 32.5182C109.945 33.7895 110.268 35.2703 110.268 36.9607C110.268 38.651 109.945 40.1283 109.299 41.3925C108.66 42.6567 107.754 43.6403 106.582 44.3435C105.41 45.0466 104.025 45.3982 102.427 45.3982ZM102.449 42.3087C103.315 42.3087 104.04 42.0707 104.622 41.5949C105.204 41.1119 105.638 40.4656 105.922 39.656C106.213 38.8463 106.358 37.9443 106.358 36.95C106.358 35.9486 106.213 35.043 105.922 34.2334C105.638 33.4166 105.204 32.7668 104.622 32.2838C104.04 31.8009 103.315 31.5594 102.449 31.5594C101.561 31.5594 100.822 31.8009 100.233 32.2838C99.6503 32.7668 99.2136 33.4166 98.9224 34.2334C98.6383 35.043 98.4962 35.9486 98.4962 36.95C98.4962 37.9443 98.6383 38.8463 98.9224 39.656C99.2136 40.4656 99.6503 41.1119 100.233 41.5949C100.822 42.0707 101.561 42.3087 102.449 42.3087ZM119.614 45.3662C118.328 45.3662 117.178 45.0359 116.162 44.3754C115.147 43.7149 114.344 42.7561 113.755 41.499C113.165 40.2419 112.87 38.7149 112.87 36.918C112.87 35.0999 113.169 33.5658 113.765 32.3158C114.369 31.0587 115.182 30.1105 116.205 29.4713C117.228 28.825 118.367 28.5018 119.625 28.5018C120.583 28.5018 121.372 28.6652 121.99 28.9919C122.608 29.3115 123.098 29.6986 123.46 30.1531C123.822 30.6006 124.103 31.0232 124.301 31.4209H124.461V23.2604H128.328V45.0786H124.536V42.5004H124.301C124.103 42.8982 123.815 43.3207 123.439 43.7682C123.062 44.2085 122.565 44.5849 121.947 44.8974C121.329 45.2099 120.551 45.3662 119.614 45.3662ZM120.69 42.2021C121.507 42.2021 122.203 41.982 122.778 41.5416C123.353 41.0942 123.79 40.4727 124.088 39.6773C124.387 38.8818 124.536 37.955 124.536 36.8967C124.536 35.8385 124.387 34.9188 124.088 34.1375C123.797 33.3563 123.364 32.749 122.789 32.3158C122.22 31.8825 121.521 31.6659 120.69 31.6659C119.831 31.6659 119.113 31.8896 118.538 32.3371C117.963 32.7845 117.529 33.4024 117.238 34.1908C116.947 34.9791 116.801 35.8811 116.801 36.8967C116.801 37.9195 116.947 38.8321 117.238 39.6347C117.537 40.4301 117.973 41.0587 118.549 41.5203C119.131 41.9749 119.845 42.2021 120.69 42.2021ZM139.682 45.3982C138.042 45.3982 136.625 45.0572 135.432 44.3754C134.246 43.6865 133.333 42.7135 132.694 41.4564C132.054 40.1922 131.735 38.7043 131.735 36.9926C131.735 35.3094 132.054 33.8321 132.694 32.5608C133.34 31.2824 134.242 30.2881 135.4 29.5778C136.557 28.8605 137.917 28.5018 139.48 28.5018C140.488 28.5018 141.44 28.6652 142.335 28.9919C143.237 29.3115 144.032 29.8087 144.721 30.4834C145.417 31.1581 145.964 32.0175 146.362 33.0615C146.76 34.0984 146.959 35.3342 146.959 36.7689V37.9514H133.546V35.352H143.262C143.255 34.6134 143.095 33.9564 142.782 33.3811C142.47 32.7987 142.033 32.3406 141.472 32.0068C140.918 31.673 140.272 31.5061 139.533 31.5061C138.745 31.5061 138.052 31.6979 137.456 32.0814C136.859 32.4578 136.394 32.955 136.06 33.5729C135.733 34.1837 135.567 34.8548 135.559 35.5864V37.8555C135.559 38.8072 135.733 39.624 136.081 40.3058C136.429 40.9805 136.916 41.499 137.541 41.8612C138.166 42.2163 138.898 42.3939 139.736 42.3939C140.297 42.3939 140.804 42.3158 141.259 42.1595C141.714 41.9962 142.108 41.7582 142.442 41.4457C142.775 41.1332 143.027 40.7462 143.198 40.2845L146.799 40.6893C146.572 41.6411 146.138 42.472 145.499 43.1822C144.867 43.8854 144.057 44.4322 143.07 44.8229C142.083 45.2064 140.954 45.3982 139.682 45.3982ZM150.221 45.0786V28.7149H153.961V31.4422H154.131C154.429 30.4976 154.941 29.7696 155.665 29.2582C156.397 28.7398 157.231 28.4805 158.169 28.4805C158.382 28.4805 158.62 28.4912 158.882 28.5125C159.152 28.5267 159.376 28.5516 159.554 28.5871V32.1347C159.39 32.0778 159.131 32.0281 158.776 31.9855C158.428 31.9358 158.091 31.9109 157.764 31.9109C157.061 31.9109 156.429 32.0636 155.867 32.369C155.314 32.6673 154.877 33.0828 154.557 33.6155C154.238 34.1482 154.078 34.7625 154.078 35.4585V45.0786H150.221ZM187.657 23.2604V45.0786H184.142L173.861 30.217H173.68V45.0786H169.728V23.2604H173.265L183.534 38.1325H183.726V23.2604H187.657ZM198.931 45.3982C197.333 45.3982 195.948 45.0466 194.776 44.3435C193.605 43.6403 192.695 42.6567 192.049 41.3925C191.41 40.1283 191.09 38.651 191.09 36.9607C191.09 35.2703 191.41 33.7895 192.049 32.5182C192.695 31.2469 193.605 30.2597 194.776 29.5565C195.948 28.8534 197.333 28.5018 198.931 28.5018C200.529 28.5018 201.914 28.8534 203.086 29.5565C204.258 30.2597 205.163 31.2469 205.803 32.5182C206.449 33.7895 206.772 35.2703 206.772 36.9607C206.772 38.651 206.449 40.1283 205.803 41.3925C205.163 42.6567 204.258 43.6403 203.086 44.3435C201.914 45.0466 200.529 45.3982 198.931 45.3982ZM198.953 42.3087C199.819 42.3087 200.543 42.0707 201.126 41.5949C201.708 41.1119 202.141 40.4656 202.426 39.656C202.717 38.8463 202.862 37.9443 202.862 36.95C202.862 35.9486 202.717 35.043 202.426 34.2334C202.141 33.4166 201.708 32.7668 201.126 32.2838C200.543 31.8009 199.819 31.5594 198.953 31.5594C198.065 31.5594 197.326 31.8009 196.737 32.2838C196.154 32.7668 195.717 33.4166 195.426 34.2334C195.142 35.043 195 35.9486 195 36.95C195 37.9443 195.142 38.8463 195.426 39.656C195.717 40.4656 196.154 41.1119 196.737 41.5949C197.326 42.0707 198.065 42.3087 198.953 42.3087ZM218.217 28.7149V31.6979H208.81V28.7149H218.217ZM211.132 24.7945H214.989V40.1567C214.989 40.6751 215.067 41.0729 215.223 41.3499C215.386 41.6197 215.599 41.8044 215.862 41.9038C216.125 42.0033 216.416 42.053 216.736 42.053C216.977 42.053 217.197 42.0352 217.396 41.9997C217.602 41.9642 217.758 41.9322 217.865 41.9038L218.515 44.9188C218.309 44.9898 218.014 45.0679 217.631 45.1531C217.254 45.2384 216.793 45.2881 216.246 45.3023C215.28 45.3307 214.41 45.1851 213.636 44.8655C212.861 44.5388 212.247 44.0345 211.793 43.3527C211.345 42.6709 211.125 41.8186 211.132 40.7959V24.7945ZM228.51 45.3982C226.87 45.3982 225.453 45.0572 224.26 44.3754C223.074 43.6865 222.161 42.7135 221.522 41.4564C220.883 40.1922 220.563 38.7043 220.563 36.9926C220.563 35.3094 220.883 33.8321 221.522 32.5608C222.168 31.2824 223.07 30.2881 224.228 29.5778C225.385 28.8605 226.746 28.5018 228.308 28.5018C229.317 28.5018 230.268 28.6652 231.163 28.9919C232.065 29.3115 232.861 29.8087 233.549 30.4834C234.246 31.1581 234.792 32.0175 235.19 33.0615C235.588 34.0984 235.787 35.3342 235.787 36.7689V37.9514H222.374V35.352H232.09C232.083 34.6134 231.923 33.9564 231.611 33.3811C231.298 32.7987 230.861 32.3406 230.3 32.0068C229.746 31.673 229.1 31.5061 228.361 31.5061C227.573 31.5061 226.88 31.6979 226.284 32.0814C225.687 32.4578 225.222 32.955 224.888 33.5729C224.562 34.1837 224.395 34.8548 224.388 35.5864V37.8555C224.388 38.8072 224.562 39.624 224.91 40.3058C225.258 40.9805 225.744 41.499 226.369 41.8612C226.994 42.2163 227.726 42.3939 228.564 42.3939C229.125 42.3939 229.633 42.3158 230.087 42.1595C230.542 41.9962 230.936 41.7582 231.27 41.4457C231.603 41.1332 231.856 40.7462 232.026 40.2845L235.627 40.6893C235.4 41.6411 234.966 42.472 234.327 43.1822C233.695 43.8854 232.885 44.4322 231.898 44.8229C230.911 45.2064 229.782 45.3982 228.51 45.3982Z" fill="#EC8000"/>
<g clip-path="url(#clip0_101_79)">
<path d="M25.1895 44.4835L12.8627 32.1568L25.1895 19.83L21.4379 16.0784L5.35947 32.1568L21.4379 48.2351L25.1895 44.4835ZM39.1241 44.4835L51.4508 32.1568L39.1241 19.83L42.8757 16.0784L58.9541 32.1568L42.8757 48.2351L39.1241 44.4835Z" fill="#EC8000"/>
<g clip-path="url(#clip1_101_79)">
<path d="M26.1274 35.6739V38.1862H28.6396L36.0491 30.7767L33.5368 28.2645L26.1274 35.6739ZM37.9919 28.8339C38.2532 28.5726 38.2532 28.1506 37.9919 27.8893L36.4242 26.3217C36.163 26.0604 35.7409 26.0604 35.4796 26.3217L34.2537 27.5476L36.7659 30.0599L37.9919 28.8339Z" fill="#EC8000"/>
</g>
</g>
<defs>
<clipPath id="clip0_101_79">
<rect width="64.3135" height="64.3135" fill="white"/>
</clipPath>
<clipPath id="clip1_101_79">
<rect width="16.0784" height="16.0784" fill="white" transform="translate(24.1176 24.1176)"/>
</clipPath>
</defs>
</svg>
